control3min_grf.mot
version=1
nRows=25
nColumns 19
inDegrees=yes
endheader
time	1_ground_force_vx	1_ground_force_vy	1_ground_force_vz	1_ground_force_px	1_ground_force_py	1_ground_force_pz	1_ground_torque_x	1_ground_torque_y	1_ground_torque_z	2_ground_force_vx	2_ground_force_vy	2_ground_force_vz	2_ground_force_px	2_ground_force_py	2_ground_force_pz	2_ground_torque_x	2_ground_torque_y	2_ground_torque_z
            1.253500	           -0.141282	           13.702327	           -0.445329	           -0.204889	            0.005999	           -0.351860	            0.010484	           -1.016831	            0.033047	           -2.985435	           -2.439902	            9.847635	           -0.232311	            0.006130	           -0.833667	            0.517692	           -2.946133	           -0.368893
            1.254000	           -0.096593	           13.163702	           -0.952176	           -0.200216	            0.006001	           -0.352079	            0.006552	           -0.892937	            0.064589	           -2.941244	           -1.703140	            9.850243	           -0.232311	            0.006130	           -0.833667	            0.517869	           -2.975096	           -0.199342
            1.254500	           -0.005329	           12.984240	           -1.136600	           -0.197094	            0.006012	           -0.354515	            0.000337	           -0.819928	            0.071774	           -3.225625	           -0.783748	            9.947504	           -0.232311	            0.006130	           -0.833667	            0.499211	           -3.012908	           -0.218319
            1.255000	           -0.188099	           12.802956	           -0.907639	           -0.197630	            0.006048	           -0.363030	            0.012071	           -0.821612	            0.058246	           -3.268569	           -1.888137	            9.755870	           -0.232311	            0.006130	           -0.833667	            0.461419	           -2.956193	           -0.255801
            1.255500	           -0.279932	           12.983401	           -0.952494	           -0.198111	            0.006014	           -0.355190	            0.021295	           -0.987680	            0.072459	           -3.170820	           -2.993191	            9.892672	           -0.232311	            0.006130	           -0.833667	            0.518023	           -3.022225	           -0.237211
            1.256000	           -0.233960	           13.523813	           -0.858577	           -0.200312	            0.006009	           -0.353911	            0.018030	           -1.042231	            0.066167	           -3.030976	           -2.808201	            9.799413	           -0.232311	            0.006130	           -0.833667	            0.574115	           -2.955651	           -0.293550
            1.256500	           -0.462831	           12.261713	           -0.817563	           -0.199873	            0.006017	           -0.355877	            0.041583	           -1.101650	            0.073454	           -3.033737	           -2.070770	            9.567400	           -0.232311	            0.006130	           -0.833667	            0.611745	           -2.965170	           -0.237049
            1.257000	           -0.049771	           11.540140	           -0.684111	           -0.193336	            0.006106	           -0.376301	            0.004258	           -0.987249	            0.058525	           -3.221617	           -1.888805	            9.990490	           -0.232311	            0.006130	           -0.833667	            0.649486	           -3.012298	           -0.237233
            1.257500	           -0.050555	           13.343583	           -0.859805	           -0.197014	            0.006020	           -0.356357	            0.003261	           -0.860833	            0.055468	           -3.035046	           -1.702641	            9.615643	           -0.232311	            0.006130	           -0.833667	            0.536782	           -3.012772	           -0.218335
            1.258000	            0.224488	           12.803036	           -0.908663	           -0.204765	            0.006043	           -0.362076	           -0.013509	           -0.770429	            0.054679	           -3.267220	           -2.256601	            9.801484	           -0.232311	            0.006130	           -0.833667	            0.536707	           -3.002983	           -0.312553
            1.258500	           -0.004580	           12.622529	           -0.863011	           -0.199124	            0.006039	           -0.360882	            0.000287	           -0.789557	            0.053983	           -3.174308	           -2.071111	            9.520532	           -0.232311	            0.006130	           -0.833667	            0.592876	           -2.955382	           -0.350108
            1.259000	           -0.096575	           12.442836	           -1.001124	           -0.196338	            0.006000	           -0.351758	            0.007476	           -0.963273	            0.077503	           -3.032223	           -2.440573	            9.988439	           -0.232311	            0.006130	           -0.833667	            0.499256	           -3.040795	           -0.350372
            1.259500	           -0.187578	           12.441638	           -0.725761	           -0.203094	            0.006030	           -0.359147	            0.016255	           -1.078173	            0.062893	           -2.988093	           -1.703309	            9.850263	           -0.232311	            0.006130	           -0.833667	            0.593002	           -2.974758	           -0.218224
            1.260000	           -0.554909	           13.163417	           -0.905183	           -0.199518	            0.006000	           -0.351902	            0.044543	           -1.056632	            0.072659	           -2.941387	           -1.701968	            9.521747	           -0.232311	            0.006130	           -0.833667	            0.517929	           -2.993934	           -0.218260
            1.260500	           -0.187952	           12.622494	           -0.862556	           -0.197451	            0.006015	           -0.355374	            0.013568	           -0.911172	            0.062265	           -3.127211	           -2.072950	           10.083649	           -0.232311	            0.006130	           -0.833667	            0.630547	           -2.965237	           -0.199356
            1.261000	            0.040774	           12.803590	           -1.045775	           -0.201916	            0.006035	           -0.360225	           -0.002598	           -0.815721	            0.066627	           -3.080341	           -2.072948	           10.130558	           -0.232311	            0.006130	           -0.833667	            0.555260	           -2.927630	           -0.218040
            1.261500	            0.041212	           13.523670	           -0.813404	           -0.197732	            0.006003	           -0.352488	           -0.002250	           -0.738462	            0.044416	           -2.989382	           -1.335347	            9.945434	           -0.232311	            0.006130	           -0.833667	            0.649222	           -2.945927	           -0.293548
            1.262000	           -0.188522	           12.623477	           -1.091835	           -0.200202	            0.005993	           -0.350198	            0.013532	           -0.906099	            0.078371	           -2.937941	           -2.623714	            9.800030	           -0.232311	            0.006130	           -0.833667	            0.574268	           -2.993596	           -0.255984
            1.262500	            0.041688	           11.540551	           -0.776051	           -0.190614	            0.006104	           -0.375710	           -0.003681	           -1.019102	            0.068530	           -2.986017	           -2.256423	           10.036005	           -0.232311	            0.006130	           -0.833667	            0.480213	           -2.956192	           -0.236959
            1.263000	            0.087399	           12.261622	           -0.773073	           -0.198973	            0.006067	           -0.367385	           -0.007576	           -1.062877	            0.067012	           -3.078429	           -2.624723	            9.940874	           -0.232311	            0.006130	           -0.833667	            0.555295	           -2.937083	           -0.218073
            1.263500	           -0.325628	           12.802930	           -0.907297	           -0.202245	            0.006011	           -0.354582	            0.026266	           -1.032699	            0.073184	           -2.983503	           -2.991845	            9.704880	           -0.232311	            0.006130	           -0.833667	            0.517979	           -3.003521	           -0.180593
            1.264000	           -0.325221	           12.441808	           -0.771276	           -0.189463	            0.006005	           -0.352655	            0.024240	           -0.927356	            0.057487	           -2.939332	           -2.254915	            9.660560	           -0.232311	            0.006130	           -0.833667	            0.592865	           -2.936947	           -0.218089
            1.264500	           -0.096218	           12.982846	           -0.815381	           -0.197086	            0.006024	           -0.357375	            0.005785	           -0.780622	            0.049027	           -3.079717	           -2.256762	           10.036044	           -0.232311	            0.006130	           -0.833667	            0.536613	           -2.974692	           -0.293601
            1.265000	           -0.141214	           12.080329	           -0.543997	           -0.199764	            0.006051	           -0.363717	            0.009487	           -0.811550	            0.036545	           -3.312781	           -2.624732	            9.706333	           -0.232311	            0.006130	           -0.833667	            0.480163	           -2.955789	           -0.350060
            1.265500	            0.224536	           13.163371	           -0.861261	           -0.197312	            0.006025	           -0.357728	           -0.015303	           -0.897130	            0.058698	           -2.894935	           -1.519826	           10.132449	           -0.232311	            0.006130	           -0.833667	            0.574251	           -2.984278	           -0.218250
